<?xml version="1.0" encoding="utf-8"?>
<!DOCTYPE svg PUBLIC "-//W3C//DTD SVG 1.1//EN" "http://www.w3.org/Graphics/SVG/1.1/DTD/svg11.dtd">
<svg version="1.1" xmlns="http://www.w3.org/2000/svg" xmlns:xlink="http://www.w3.org/1999/xlink" x="0px" y="0px"
    width="506px" height="506px" viewBox="0 0 506 506">
  <path fill="#2D2D2D" d="M500.962,489.713c0,6.627-5.372,12-12,12H15.796c-6.627,0-12-5.373-12-12V16.547
      c0-6.627,5.373-12,12-12h473.166c6.628,0,12,5.373,12,12V489.713z"/>
  <defs>
    <path id="SVGID_1_" d="M501.633,487.737c0,6.613-5.438,11.976-12.145,11.976H16.109c-6.708,0-12.145-5.362-12.145-11.976V17.471
        c0-6.615,5.437-11.976,12.145-11.976h473.379c6.707,0,12.145,5.361,12.145,11.976V487.737z"/>
  </defs>
  <clipPath id="SVGID_2_">
    <use xlink:href="#SVGID_1_"  overflow="visible"/>
  </clipPath>
  <path id="T-Path" clip-path="url(#SVGID_2_)" fill="#FFFFFF" d="M229.842,73.848v141.436h153.633v81.692H229.842v318.235
      c0,73.156,20.73,114.608,80.474,114.608c29.265,0,46.334-2.438,62.184-7.314l4.877,81.691
      c-20.729,7.32-53.651,14.633-95.105,14.633c-49.991,0-90.226-17.07-115.831-45.114c-29.264-32.921-41.457-85.351-41.457-154.85
      V296.978H33.536v-81.692h91.447V105.551L229.842,73.848z"/>
</svg>
